<?xml version="1.0" encoding="UTF-8"?>
<!DOCTYPE svg PUBLIC "-//W3C//DTD SVG 1.1//EN" "http://www.w3.org/Graphics/SVG/1.1/DTD/svg11.dtd">
<svg xmlns="http://www.w3.org/2000/svg" version="1.1" width="298px" height="290px" style="shape-rendering:geometricPrecision; text-rendering:geometricPrecision; image-rendering:optimizeQuality; fill-rule:evenodd; clip-rule:evenodd" xmlns:xlink="http://www.w3.org/1999/xlink">
<g><path style="opacity:1" fill="#6c727f" d="M 6.5,-0.5 C 101.167,-0.5 195.833,-0.5 290.5,-0.5C 290.5,-0.166667 290.5,0.166667 290.5,0.5C 196.332,0.167262 102.332,0.500596 8.5,1.5C 7.16667,1.5 5.83333,1.5 4.5,1.5C 5.16667,0.833333 5.83333,0.166667 6.5,-0.5 Z"/></g>
<g><path style="opacity:1" fill="#444b5c" d="M 8.5,1.5 C 102.332,0.500596 196.332,0.167262 290.5,0.5C 291.492,0.32842 292.158,0.661754 292.5,1.5C 292.5,1.83333 292.5,2.16667 292.5,2.5C 291.883,2.61071 291.383,2.94404 291,3.5C 197.045,1.50387 102.879,0.837201 8.5,1.5 Z"/></g>
<g><path style="opacity:1" fill="#3b4254" d="M 4.5,1.5 C 5.83333,1.5 7.16667,1.5 8.5,1.5C 102.879,0.837201 197.045,1.50387 291,3.5C 291.383,2.94404 291.883,2.61071 292.5,2.5C 294.167,3.83333 295.833,5.16667 297.5,6.5C 297.5,99.1667 297.5,191.833 297.5,284.5C 296.197,286.142 294.864,287.809 293.5,289.5C 196.833,289.5 100.167,289.5 3.5,289.5C 2.13632,287.809 0.802988,286.142 -0.5,284.5C -0.5,191.833 -0.5,99.1667 -0.5,6.5C 1.5,5.16667 3.16667,3.5 4.5,1.5 Z"/></g>
<g><path style="opacity:1" fill="#ced0d5" d="M 292.5,2.5 C 292.5,2.16667 292.5,1.83333 292.5,1.5C 294.411,2.07501 296.078,3.07501 297.5,4.5C 297.5,5.16667 297.5,5.83333 297.5,6.5C 295.833,5.16667 294.167,3.83333 292.5,2.5 Z"/></g>
<g><path style="opacity:1" fill="#bfc2c8" d="M 4.5,1.5 C 3.16667,3.5 1.5,5.16667 -0.5,6.5C -0.5,5.83333 -0.5,5.16667 -0.5,4.5C 0.922032,3.07501 2.5887,2.07501 4.5,1.5 Z"/></g>
<g><path style="opacity:1" fill="#8c909b" d="M 70.5,33.5 C 69.5017,65.9957 69.1684,98.6624 69.5,131.5C 69.1667,131.5 68.8333,131.5 68.5,131.5C 68.5,98.8333 68.5,66.1667 68.5,33.5C 78.9869,32.5056 89.6536,32.1722 100.5,32.5C 100.5,25.8333 100.5,19.1667 100.5,12.5C 70.8333,12.5 41.1667,12.5 11.5,12.5C 11.5,19.1667 11.5,25.8333 11.5,32.5C 22.1667,32.5 32.8333,32.5 43.5,32.5C 43.5,65.1667 43.5,97.8333 43.5,130.5C 43.5,130.833 43.5,131.167 43.5,131.5C 43.1667,131.5 42.8333,131.5 42.5,131.5C 42.5,99.1667 42.5,66.8333 42.5,34.5C 32.0131,33.5056 21.3464,33.1722 10.5,33.5C 10.5,26.1667 10.5,18.8333 10.5,11.5C 40.8333,11.5 71.1667,11.5 101.5,11.5C 101.5,18.8333 101.5,26.1667 101.5,33.5C 91.1667,33.5 80.8333,33.5 70.5,33.5 Z"/></g>
<g><path style="opacity:1" fill="#858995" d="M 119.5,12.5 C 127.984,11.507 136.651,11.1736 145.5,11.5C 145.832,51.6701 145.499,91.6701 144.5,131.5C 144.5,131.167 144.5,130.833 144.5,130.5C 144.5,91.1667 144.5,51.8333 144.5,12.5C 136.5,12.5 128.5,12.5 120.5,12.5C 120.167,12.5 119.833,12.5 119.5,12.5 Z"/></g>
<g><path style="opacity:1" fill="#fbfbfb" d="M 261.5,92.5 C 261.259,94.8984 261.926,96.8984 263.5,98.5C 267.585,108.622 271.252,118.955 274.5,129.5C 265.682,130.493 256.682,130.827 247.5,130.5C 246.475,125.733 245.142,121.066 243.5,116.5C 243.554,113.008 242.554,110.008 240.5,107.5C 240.579,106.07 240.246,104.736 239.5,103.5C 224.848,102.501 210.182,102.167 195.5,102.5C 192.833,112.167 190.167,121.833 187.5,131.5C 178.5,131.5 169.5,131.5 160.5,131.5C 161.017,127.778 161.85,124.112 163,120.5C 170.375,102.545 176.875,84.2121 182.5,65.5C 184.213,64.3646 184.88,62.698 184.5,60.5C 188.479,49.9079 192.145,39.2412 195.5,28.5C 197.834,26.8243 198.834,24.491 198.5,21.5C 199.341,18.4814 200.341,15.4814 201.5,12.5C 212.167,11.1667 222.833,11.1667 233.5,12.5C 242.656,39.3034 251.989,65.9701 261.5,92.5 Z"/></g>
<g><path style="opacity:1" fill="#fdfdfd" d="M 68.5,33.5 C 67.5018,65.6624 67.1684,97.9957 67.5,130.5C 59.5,130.5 51.5,130.5 43.5,130.5C 43.5,97.8333 43.5,65.1667 43.5,32.5C 32.8333,32.5 22.1667,32.5 11.5,32.5C 11.5,25.8333 11.5,19.1667 11.5,12.5C 41.1667,12.5 70.8333,12.5 100.5,12.5C 100.5,19.1667 100.5,25.8333 100.5,32.5C 89.6536,32.1722 78.9869,32.5056 68.5,33.5 Z"/></g>
<g><path style="opacity:1" fill="#fefdfe" d="M 120.5,12.5 C 128.5,12.5 136.5,12.5 144.5,12.5C 144.5,51.8333 144.5,91.1667 144.5,130.5C 136.5,130.5 128.5,130.5 120.5,130.5C 120.5,91.1667 120.5,51.8333 120.5,12.5 Z"/></g>
<g><path style="opacity:1" fill="#d6d7da" d="M 119.5,12.5 C 119.833,12.5 120.167,12.5 120.5,12.5C 120.5,51.8333 120.5,91.1667 120.5,130.5C 128.5,130.5 136.5,130.5 144.5,130.5C 144.5,130.833 144.5,131.167 144.5,131.5C 136.167,131.5 127.833,131.5 119.5,131.5C 119.5,91.8333 119.5,52.1667 119.5,12.5 Z"/></g>
<g><path style="opacity:1" fill="#a5a8b1" d="M 198.5,21.5 C 198.834,24.491 197.834,26.8243 195.5,28.5C 195.935,25.8427 196.935,23.5093 198.5,21.5 Z"/></g>
<g><path style="opacity:1" fill="#1b2438" d="M 70.5,33.5 C 80.6585,34.3303 90.9919,34.8303 101.5,35C 91.172,35.4998 80.8387,35.6665 70.5,35.5C 70.8316,67.671 70.4982,99.671 69.5,131.5C 69.1684,98.6624 69.5017,65.9957 70.5,33.5 Z"/></g>
<g><path style="opacity:1" fill="#30374a" d="M 42.5,34.5 C 42.5,66.8333 42.5,99.1667 42.5,131.5C 40.5073,99.8508 39.8406,67.8508 40.5,35.5C 30.4944,35.6665 20.4944,35.4998 10.5,35C 21.1615,34.5002 31.8281,34.3335 42.5,34.5 Z"/></g>
<g><path style="opacity:1" fill="#dfe0e4" d="M 68.5,33.5 C 68.5,66.1667 68.5,98.8333 68.5,131.5C 60.1667,131.5 51.8333,131.5 43.5,131.5C 43.5,131.167 43.5,130.833 43.5,130.5C 51.5,130.5 59.5,130.5 67.5,130.5C 67.1684,97.9957 67.5018,65.6624 68.5,33.5 Z"/></g>
<g><path style="opacity:1" fill="#767b88" d="M 216.5,34.5 C 216.59,37.1522 215.924,39.4855 214.5,41.5C 214.41,38.8478 215.076,36.5145 216.5,34.5 Z"/></g>
<g><path style="opacity:1" fill="#394053" d="M 223.5,50.5 C 223.41,53.1522 224.076,55.4855 225.5,57.5C 228.127,64.6511 230.46,71.9844 232.5,79.5C 227.881,80.8275 222.881,81.4942 217.5,81.5C 212.322,81.4993 207.322,81.166 202.5,80.5C 206.092,67.3885 210.092,54.3885 214.5,41.5C 215.924,39.4855 216.59,37.1522 216.5,34.5C 216.281,33.325 216.614,32.325 217.5,31.5C 219.345,37.8784 221.345,44.2118 223.5,50.5 Z"/></g>
<g><path style="opacity:1" fill="#747986" d="M 223.5,50.5 C 224.924,52.5145 225.59,54.8478 225.5,57.5C 224.076,55.4855 223.41,53.1522 223.5,50.5 Z"/></g>
<g><path style="opacity:1" fill="#979ba5" d="M 184.5,60.5 C 184.88,62.698 184.213,64.3646 182.5,65.5C 182.796,63.597 183.463,61.9303 184.5,60.5 Z"/></g>
<g><path style="opacity:1" fill="#c0c2c8" d="M 232.5,79.5 C 233.404,80.209 233.737,81.209 233.5,82.5C 222.813,82.832 212.146,82.4987 201.5,81.5C 201.624,80.8933 201.957,80.56 202.5,80.5C 207.322,81.166 212.322,81.4993 217.5,81.5C 222.881,81.4942 227.881,80.8275 232.5,79.5 Z"/></g>
<g><path style="opacity:1" fill="#b2b5bc" d="M 261.5,92.5 C 263.074,94.1016 263.741,96.1016 263.5,98.5C 261.926,96.8984 261.259,94.8984 261.5,92.5 Z"/></g>
<g><path style="opacity:1" fill="#b1b4bb" d="M 240.5,107.5 C 242.554,110.008 243.554,113.008 243.5,116.5C 242.054,113.746 241.054,110.746 240.5,107.5 Z"/></g>
<g><path style="opacity:1" fill="#c6c8ce" d="M 274.5,129.5 C 275.043,129.56 275.376,129.893 275.5,130.5C 266.008,131.822 256.675,131.822 247.5,130.5C 256.682,130.827 265.682,130.493 274.5,129.5 Z"/></g>
<g><path style="opacity:1" fill="#8bb8fd" d="M 153.5,275.5 C 153.833,250.491 153.5,225.491 152.5,200.5C 151.893,200.624 151.56,200.957 151.5,201.5C 143.685,208.161 134.852,213.161 125,216.5C 124.5,207.506 124.334,198.506 124.5,189.5C 140.18,185.153 151.18,175.487 157.5,160.5C 165.138,159.503 172.804,159.169 180.5,159.5C 180.5,198.167 180.5,236.833 180.5,275.5C 171.5,275.5 162.5,275.5 153.5,275.5 Z"/></g>
<g><path style="opacity:1" fill="#8ab7fb" d="M 236.5,159.5 C 259.339,156.495 275.172,165.495 284,186.5C 289.575,206.403 289.909,226.403 285,246.5C 277.04,271.073 260.206,281.24 234.5,277C 220.4,273.067 212.067,263.901 209.5,249.5C 218.748,247.75 228.082,246.75 237.5,246.5C 238.273,256.613 243.273,259.613 252.5,255.5C 258.155,247.401 260.322,238.401 259,228.5C 249.346,237.937 238.179,240.104 225.5,235C 210.019,223.312 204.186,207.812 208,188.5C 211.69,172.977 221.19,163.311 236.5,159.5 Z"/></g>
<g><path style="opacity:1" fill="#8ab7fb" d="M 9.5,161.5 C 20.415,161.18 31.2483,161.513 42,162.5C 48.7969,188.557 55.7969,214.557 63,240.5C 70.6253,214.336 77.792,188.002 84.5,161.5C 94.8333,161.5 105.167,161.5 115.5,161.5C 104.137,199.277 92.3037,236.943 80,274.5C 68.6667,275.833 57.3333,275.833 46,274.5C 33.924,236.773 21.7574,199.106 9.5,161.5 Z"/></g>
<g><path style="opacity:1" fill="#3c4356" d="M 242.5,179.5 C 250.56,179.112 255.727,182.778 258,190.5C 260.412,198.12 259.746,205.454 256,212.5C 250.843,218.073 245.01,218.906 238.5,215C 233.791,207.519 232.291,199.352 234,190.5C 235.553,185.788 238.386,182.121 242.5,179.5 Z"/></g>
<g><path style="opacity:1" fill="#6886b6" d="M 151.5,201.5 C 151.56,200.957 151.893,200.624 152.5,200.5C 153.5,225.491 153.833,250.491 153.5,275.5C 152.833,250.833 152.167,226.167 151.5,201.5 Z"/></g>
<g><path style="opacity:1" fill="#d7d8dc" d="M -0.5,284.5 C 0.802988,286.142 2.13632,287.809 3.5,289.5C 2.83333,289.5 2.16667,289.5 1.5,289.5C 1.16667,288.5 0.5,287.833 -0.5,287.5C -0.5,286.5 -0.5,285.5 -0.5,284.5 Z"/></g>
<g><path style="opacity:1" fill="#dcdee1" d="M 297.5,284.5 C 297.5,285.5 297.5,286.5 297.5,287.5C 296.5,287.833 295.833,288.5 295.5,289.5C 294.833,289.5 294.167,289.5 293.5,289.5C 294.864,287.809 296.197,286.142 297.5,284.5 Z"/></g>
</svg>
